<mxfile host="app.diagrams.net" agent="Mozilla/5.0 (Macintosh; Intel Mac OS X 10_15_7) AppleWebKit/537.36 (KHTML, like Gecko) Chrome/129.0.0.0 Safari/537.36" version="24.7.16">
  <diagram name="Page-1" id="efa7a0a1-bf9b-a30e-e6df-94a7791c09e9">
    <mxGraphModel dx="3219" dy="1167" grid="1" gridSize="10" guides="1" tooltips="1" connect="1" arrows="1" fold="1" page="1" pageScale="1" pageWidth="826" pageHeight="1169" background="#FFFFFF" math="0" shadow="0">
      <root>
        <mxCell id="0" />
        <mxCell id="1" parent="0" />
        <mxCell id="23" value="&lt;p style=&quot;margin: 0px; margin-top: 4px; text-align: center; text-decoration: underline;&quot;&gt;&lt;/p&gt;&lt;h3&gt;&lt;strong&gt;&lt;font style=&quot;font-size: 18px;&quot;&gt;&lt;span style=&quot;white-space: pre;&quot;&gt;&#x9;&lt;/span&gt;&lt;span style=&quot;white-space: pre;&quot;&gt;&#x9;&lt;/span&gt;&lt;span style=&quot;white-space: pre;&quot;&gt;&#x9;&lt;/span&gt;&lt;span style=&quot;white-space: pre;&quot;&gt;&#x9;&lt;/span&gt;Financial Advisor Profile&lt;/font&gt;&lt;/strong&gt;&lt;/h3&gt;&lt;p style=&quot;margin: 0px; margin-left: 8px;&quot;&gt;&lt;font size=&quot;3&quot;&gt;&lt;span style=&quot;white-space: pre;&quot;&gt;&#x9;&lt;/span&gt;&lt;br&gt;&lt;/font&gt;&lt;/p&gt;&lt;blockquote style=&quot;margin: 0 0 0 40px; border: none; padding: 0px;&quot;&gt;&lt;li&gt;&lt;font size=&quot;3&quot; style=&quot;&quot;&gt;&lt;strong style=&quot;&quot;&gt;Basic Details&lt;/strong&gt;: Name, Title, Bio, Location&lt;/font&gt;&lt;/li&gt;&lt;li&gt;&lt;font size=&quot;3&quot;&gt;&lt;strong&gt;Experience&lt;/strong&gt;: Graph for visual display, Skills, Duration&lt;/font&gt;&lt;/li&gt;&lt;li&gt;&lt;font size=&quot;3&quot;&gt;&lt;strong&gt;Certifications &amp;amp; Achievements&lt;/strong&gt;: Timeline view for visual info&lt;/font&gt;&lt;/li&gt;&lt;li&gt;&lt;font size=&quot;3&quot;&gt;&lt;strong&gt;SEBI Authorization&lt;/strong&gt;: Link to SEBI profile&lt;/font&gt;&lt;/li&gt;&lt;/blockquote&gt;" style="verticalAlign=top;align=left;overflow=fill;fontSize=12;fontFamily=Helvetica;html=1;strokeColor=#003366;shadow=1;fillColor=#D4E1F5;fontColor=#003366;movable=0;resizable=0;rotatable=0;deletable=0;editable=0;locked=1;connectable=0;" parent="1" vertex="1">
          <mxGeometry x="291" y="160" width="535" height="180" as="geometry" />
        </mxCell>
        <mxCell id="oC0wFiGyRF026IoA_8Jc-117" value="" style="edgeStyle=orthogonalEdgeStyle;rounded=0;orthogonalLoop=1;jettySize=auto;html=1;" edge="1" parent="1">
          <mxGeometry relative="1" as="geometry">
            <mxPoint x="-350" y="632" as="sourcePoint" />
            <mxPoint x="-350" y="862" as="targetPoint" />
            <Array as="points">
              <mxPoint x="-300" y="631.9600000000005" />
              <mxPoint x="-300" y="861.9600000000003" />
            </Array>
          </mxGeometry>
        </mxCell>
        <mxCell id="oC0wFiGyRF026IoA_8Jc-130" value="" style="edgeStyle=orthogonalEdgeStyle;rounded=0;orthogonalLoop=1;jettySize=auto;html=1;" edge="1" parent="1" source="28">
          <mxGeometry relative="1" as="geometry">
            <mxPoint x="-355" y="632.72" as="targetPoint" />
          </mxGeometry>
        </mxCell>
        <mxCell id="45" value="" style="endArrow=open;endSize=12;startArrow=diamondThin;startSize=14;startFill=0;edgeStyle=orthogonalEdgeStyle;rounded=0;entryX=0.5;entryY=0;entryDx=0;entryDy=0;" parent="1" source="23" target="22" edge="1">
          <mxGeometry x="519.3599999999999" y="180" as="geometry">
            <mxPoint x="519.3599999999999" y="180" as="sourcePoint" />
            <mxPoint x="1040" y="490" as="targetPoint" />
            <Array as="points">
              <mxPoint x="1020" y="250" />
            </Array>
          </mxGeometry>
        </mxCell>
        <mxCell id="46" value="0..n" style="resizable=0;align=left;verticalAlign=top;labelBackgroundColor=#ffffff;fontSize=10;strokeColor=#003366;shadow=1;fillColor=#D4E1F5;fontColor=#003366" parent="45" connectable="0" vertex="1">
          <mxGeometry x="-1" relative="1" as="geometry">
            <mxPoint x="8.919999999999618" as="offset" />
          </mxGeometry>
        </mxCell>
        <mxCell id="51" value="" style="endArrow=open;endSize=12;startArrow=diamondThin;startSize=14;startFill=0;edgeStyle=orthogonalEdgeStyle" parent="1" source="23" target="29" edge="1">
          <mxGeometry x="389.35999999999996" y="350" as="geometry">
            <mxPoint x="389.35999999999996" y="350" as="sourcePoint" />
            <mxPoint x="549.3599999999999" y="350" as="targetPoint" />
          </mxGeometry>
        </mxCell>
        <mxCell id="63" value="" style="endArrow=open;endSize=12;startArrow=diamondThin;startSize=14;startFill=0;edgeStyle=orthogonalEdgeStyle;" parent="1" source="29" edge="1">
          <mxGeometry x="479.35999999999996" y="790" as="geometry">
            <mxPoint x="560" y="780" as="sourcePoint" />
            <mxPoint x="558.5999999999999" y="879.9999999999995" as="targetPoint" />
            <Array as="points">
              <mxPoint x="559" y="820" />
              <mxPoint x="559" y="820" />
            </Array>
          </mxGeometry>
        </mxCell>
        <mxCell id="64" value="0..n" style="resizable=0;align=left;verticalAlign=top;labelBackgroundColor=#ffffff;fontSize=10;strokeColor=#003366;shadow=1;fillColor=#D4E1F5;fontColor=#003366" parent="63" connectable="0" vertex="1">
          <mxGeometry x="-1" relative="1" as="geometry">
            <mxPoint x="-30" y="-97.50000000000027" as="offset" />
          </mxGeometry>
        </mxCell>
        <mxCell id="81" value="" style="endArrow=open;endSize=12;startArrow=diamondThin;startSize=14;startFill=0;edgeStyle=orthogonalEdgeStyle;exitX=0.5;exitY=0;exitDx=0;exitDy=0;entryX=0.5;entryY=1;entryDx=0;entryDy=0;" parent="1" source="27" target="35" edge="1">
          <mxGeometry x="1119.36" y="540" as="geometry">
            <mxPoint x="1470" y="860" as="sourcePoint" />
            <mxPoint x="1460" y="90" as="targetPoint" />
            <Array as="points" />
          </mxGeometry>
        </mxCell>
        <mxCell id="82" value="0..n" style="resizable=0;align=left;verticalAlign=top;labelBackgroundColor=#ffffff;fontSize=10;strokeColor=#003366;shadow=1;fillColor=#D4E1F5;fontColor=#003366" parent="81" connectable="0" vertex="1">
          <mxGeometry x="-1" relative="1" as="geometry">
            <mxPoint x="10" y="-20" as="offset" />
          </mxGeometry>
        </mxCell>
        <mxCell id="83" value="1" style="resizable=0;align=right;verticalAlign=top;labelBackgroundColor=#ffffff;fontSize=10;strokeColor=#003366;shadow=1;fillColor=#D4E1F5;fontColor=#003366" parent="81" connectable="0" vertex="1">
          <mxGeometry x="1" relative="1" as="geometry">
            <mxPoint x="20" as="offset" />
          </mxGeometry>
        </mxCell>
        <mxCell id="oC0wFiGyRF026IoA_8Jc-119" value="&lt;p style=&quot;margin: 0px; margin-top: 4px; text-align: center; text-decoration: underline;&quot;&gt;&lt;/p&gt;&lt;p style=&quot;margin: 0px; margin-left: 8px;&quot;&gt;&lt;b&gt;&lt;font style=&quot;font-size: 14px;&quot;&gt;&amp;nbsp; &amp;nbsp; &amp;nbsp; &amp;nbsp; &amp;nbsp; &amp;nbsp; &amp;nbsp; &amp;nbsp; USER&lt;/font&gt;&lt;/b&gt;&lt;/p&gt;&lt;p style=&quot;margin: 0px; margin-left: 8px;&quot;&gt;&lt;font size=&quot;3&quot;&gt;&lt;br&gt;&lt;/font&gt;&lt;/p&gt;&lt;p style=&quot;margin: 0px; margin-left: 8px;&quot;&gt;&lt;font size=&quot;3&quot;&gt;IdUser&lt;/font&gt;&lt;/p&gt;&lt;p style=&quot;margin: 0px; margin-left: 8px;&quot;&gt;&lt;font size=&quot;3&quot;&gt;IdRole&lt;/font&gt;&lt;/p&gt;&lt;p style=&quot;margin: 0px; margin-left: 8px;&quot;&gt;&lt;font size=&quot;3&quot;&gt;Name&lt;/font&gt;&lt;/p&gt;&lt;p style=&quot;margin: 0px; margin-left: 8px;&quot;&gt;&lt;font size=&quot;3&quot;&gt;Description&lt;/font&gt;&lt;/p&gt;&lt;p style=&quot;margin: 0px; margin-left: 8px;&quot;&gt;&lt;font size=&quot;3&quot;&gt;CreatedAt&lt;/font&gt;&lt;/p&gt;&lt;p style=&quot;margin: 0px; margin-left: 8px;&quot;&gt;&lt;font size=&quot;3&quot;&gt;UpdatedAt&lt;/font&gt;&lt;/p&gt;&lt;p style=&quot;margin: 0px; margin-left: 8px;&quot;&gt;&lt;font size=&quot;3&quot;&gt;Enabled&lt;/font&gt;&lt;/p&gt;" style="verticalAlign=top;align=left;overflow=fill;fontSize=12;fontFamily=Helvetica;html=1;strokeColor=#003366;shadow=1;fillColor=#D4E1F5;fontColor=#003366;movable=0;resizable=0;rotatable=0;deletable=0;editable=0;locked=1;connectable=0;" vertex="1" parent="1">
          <mxGeometry x="-550" y="326.96" width="200" height="193.04" as="geometry" />
        </mxCell>
        <mxCell id="oC0wFiGyRF026IoA_8Jc-123" value="" style="edgeStyle=orthogonalEdgeStyle;rounded=0;orthogonalLoop=1;jettySize=auto;html=1;entryX=1;entryY=0.42;entryDx=0;entryDy=0;entryPerimeter=0;" edge="1" parent="1" target="oC0wFiGyRF026IoA_8Jc-119">
          <mxGeometry relative="1" as="geometry">
            <mxPoint x="-300" y="630" as="sourcePoint" />
            <mxPoint x="-250" y="390" as="targetPoint" />
            <Array as="points">
              <mxPoint x="-300" y="390" />
            </Array>
          </mxGeometry>
        </mxCell>
        <mxCell id="oC0wFiGyRF026IoA_8Jc-132" value="" style="verticalLabelPosition=bottom;html=1;verticalAlign=top;align=center;strokeColor=none;fillColor=#00BEF2;shape=mxgraph.azure.user;" vertex="1" parent="1">
          <mxGeometry x="-460" y="240" width="60" height="72.5" as="geometry" />
        </mxCell>
        <mxCell id="oC0wFiGyRF026IoA_8Jc-140" value="" style="shape=image;html=1;verticalAlign=top;verticalLabelPosition=bottom;labelBackgroundColor=#ffffff;imageAspect=0;aspect=fixed;image=https://cdn3.iconfinder.com/data/icons/fintech-icon/128/07_Email_Transfer-128.png" vertex="1" parent="1">
          <mxGeometry x="720" y="160" width="86" height="86" as="geometry" />
        </mxCell>
        <mxCell id="oC0wFiGyRF026IoA_8Jc-142" value="&lt;span style=&quot;font-size: 72px;&quot;&gt;FinanceBro System Design&lt;/span&gt;" style="text;html=1;align=center;verticalAlign=middle;whiteSpace=wrap;rounded=0;" vertex="1" parent="1">
          <mxGeometry x="130" y="10" width="880" height="100" as="geometry" />
        </mxCell>
        <mxCell id="oC0wFiGyRF026IoA_8Jc-146" value="&lt;p style=&quot;margin: 0px; margin-top: 4px; text-align: center; text-decoration: underline;&quot;&gt;&lt;/p&gt;&lt;p style=&quot;margin: 0px; margin-left: 8px;&quot;&gt;&lt;b&gt;&lt;font style=&quot;font-size: 14px;&quot;&gt;&amp;nbsp; &amp;nbsp; &amp;nbsp; &amp;nbsp; &amp;nbsp; &amp;nbsp; &amp;nbsp; &amp;nbsp; USER&lt;/font&gt;&lt;/b&gt;&lt;/p&gt;&lt;p style=&quot;margin: 0px; margin-left: 8px;&quot;&gt;&lt;font size=&quot;3&quot;&gt;&lt;br&gt;&lt;/font&gt;&lt;/p&gt;&lt;p style=&quot;margin: 0px; margin-left: 8px;&quot;&gt;&lt;font size=&quot;3&quot;&gt;IdUser&lt;/font&gt;&lt;/p&gt;&lt;p style=&quot;margin: 0px; margin-left: 8px;&quot;&gt;&lt;font size=&quot;3&quot;&gt;IdRole&lt;/font&gt;&lt;/p&gt;&lt;p style=&quot;margin: 0px; margin-left: 8px;&quot;&gt;&lt;font size=&quot;3&quot;&gt;Name&lt;/font&gt;&lt;/p&gt;&lt;p style=&quot;margin: 0px; margin-left: 8px;&quot;&gt;&lt;font size=&quot;3&quot;&gt;Description&lt;/font&gt;&lt;/p&gt;&lt;p style=&quot;margin: 0px; margin-left: 8px;&quot;&gt;&lt;font size=&quot;3&quot;&gt;CreatedAt&lt;/font&gt;&lt;/p&gt;&lt;p style=&quot;margin: 0px; margin-left: 8px;&quot;&gt;&lt;font size=&quot;3&quot;&gt;UpdatedAt&lt;/font&gt;&lt;/p&gt;&lt;p style=&quot;margin: 0px; margin-left: 8px;&quot;&gt;&lt;font size=&quot;3&quot;&gt;Enabled&lt;/font&gt;&lt;/p&gt;" style="verticalAlign=top;align=left;overflow=fill;fontSize=12;fontFamily=Helvetica;html=1;strokeColor=#003366;shadow=1;fillColor=#D4E1F5;fontColor=#003366;movable=0;resizable=0;rotatable=0;deletable=0;editable=0;locked=1;connectable=0;" vertex="1" parent="1">
          <mxGeometry x="-550" y="535.4399999999999" width="200" height="193.04" as="geometry" />
        </mxCell>
        <mxCell id="oC0wFiGyRF026IoA_8Jc-147" value="&lt;p style=&quot;margin: 0px; margin-top: 4px; text-align: center; text-decoration: underline;&quot;&gt;&lt;/p&gt;&lt;p style=&quot;margin: 0px; margin-left: 8px;&quot;&gt;&lt;b&gt;&lt;font style=&quot;font-size: 14px;&quot;&gt;&amp;nbsp; &amp;nbsp; &amp;nbsp; &amp;nbsp; &amp;nbsp; &amp;nbsp; &amp;nbsp; &amp;nbsp; USER&lt;/font&gt;&lt;/b&gt;&lt;/p&gt;&lt;p style=&quot;margin: 0px; margin-left: 8px;&quot;&gt;&lt;font size=&quot;3&quot;&gt;&lt;br&gt;&lt;/font&gt;&lt;/p&gt;&lt;p style=&quot;margin: 0px; margin-left: 8px;&quot;&gt;&lt;font size=&quot;3&quot;&gt;IdUser&lt;/font&gt;&lt;/p&gt;&lt;p style=&quot;margin: 0px; margin-left: 8px;&quot;&gt;&lt;font size=&quot;3&quot;&gt;IdRole&lt;/font&gt;&lt;/p&gt;&lt;p style=&quot;margin: 0px; margin-left: 8px;&quot;&gt;&lt;font size=&quot;3&quot;&gt;Name&lt;/font&gt;&lt;/p&gt;&lt;p style=&quot;margin: 0px; margin-left: 8px;&quot;&gt;&lt;font size=&quot;3&quot;&gt;Description&lt;/font&gt;&lt;/p&gt;&lt;p style=&quot;margin: 0px; margin-left: 8px;&quot;&gt;&lt;font size=&quot;3&quot;&gt;CreatedAt&lt;/font&gt;&lt;/p&gt;&lt;p style=&quot;margin: 0px; margin-left: 8px;&quot;&gt;&lt;font size=&quot;3&quot;&gt;UpdatedAt&lt;/font&gt;&lt;/p&gt;&lt;p style=&quot;margin: 0px; margin-left: 8px;&quot;&gt;&lt;font size=&quot;3&quot;&gt;Enabled&lt;/font&gt;&lt;/p&gt;" style="verticalAlign=top;align=left;overflow=fill;fontSize=12;fontFamily=Helvetica;html=1;strokeColor=#003366;shadow=1;fillColor=#D4E1F5;fontColor=#003366;movable=0;resizable=0;rotatable=0;deletable=0;editable=0;locked=1;connectable=0;" vertex="1" parent="1">
          <mxGeometry x="-550" y="750" width="200" height="193.04" as="geometry" />
        </mxCell>
        <mxCell id="oC0wFiGyRF026IoA_8Jc-149" value="" style="endArrow=classic;startArrow=classic;html=1;rounded=0;entryX=0.518;entryY=1;entryDx=0;entryDy=0;exitX=0.5;exitY=1;exitDx=0;exitDy=0;entryPerimeter=0;" edge="1" parent="1" source="oC0wFiGyRF026IoA_8Jc-147" target="27">
          <mxGeometry width="50" height="50" relative="1" as="geometry">
            <mxPoint x="430" y="670" as="sourcePoint" />
            <mxPoint x="1440" y="1150" as="targetPoint" />
            <Array as="points">
              <mxPoint x="-450" y="1120" />
              <mxPoint x="20" y="1120" />
              <mxPoint x="510" y="1120" />
              <mxPoint x="1460" y="1120" />
              <mxPoint x="1560" y="1120" />
              <mxPoint x="1560" y="1090" />
            </Array>
          </mxGeometry>
        </mxCell>
        <mxCell id="oC0wFiGyRF026IoA_8Jc-155" value="" style="group;movable=1;resizable=1;rotatable=1;deletable=1;editable=1;locked=0;connectable=1;" vertex="1" connectable="0" parent="1">
          <mxGeometry x="1194.0000000000002" y="790.0000000000001" width="160" height="130" as="geometry" />
        </mxCell>
        <mxCell id="30" value="&lt;p style=&quot;margin: 0px; margin-top: 4px; text-align: center; text-decoration: underline;&quot;&gt;&lt;/p&gt;&lt;p style=&quot;margin: 0px; margin-left: 8px;&quot;&gt;&lt;b&gt;&lt;font style=&quot;font-size: 18px;&quot;&gt;&lt;span style=&quot;white-space: pre;&quot;&gt;&#x9;&lt;/span&gt;Database&lt;/font&gt;&lt;/b&gt;&lt;/p&gt;&lt;p style=&quot;margin: 0px; margin-left: 8px;&quot;&gt;&lt;font size=&quot;3&quot;&gt;&lt;br&gt;&lt;/font&gt;&lt;/p&gt;" style="verticalAlign=top;align=left;overflow=fill;fontSize=12;fontFamily=Helvetica;html=1;strokeColor=#003366;shadow=1;fillColor=#D4E1F5;fontColor=#003366" parent="oC0wFiGyRF026IoA_8Jc-155" vertex="1">
          <mxGeometry width="160" height="130" as="geometry" />
        </mxCell>
        <mxCell id="oC0wFiGyRF026IoA_8Jc-154" value="" style="html=1;verticalLabelPosition=bottom;align=center;labelBackgroundColor=#ffffff;verticalAlign=top;strokeWidth=2;strokeColor=#0080F0;shadow=0;dashed=0;shape=mxgraph.ios7.icons.data;" vertex="1" parent="oC0wFiGyRF026IoA_8Jc-155">
          <mxGeometry x="49.49999999999977" y="29.999999999999886" width="61" height="90" as="geometry" />
        </mxCell>
        <mxCell id="oC0wFiGyRF026IoA_8Jc-159" value="" style="endArrow=classic;startArrow=classic;html=1;rounded=0;entryX=0;entryY=0.5;entryDx=0;entryDy=0;exitX=1;exitY=0.5;exitDx=0;exitDy=0;" edge="1" parent="1" source="29" target="22">
          <mxGeometry width="50" height="50" relative="1" as="geometry">
            <mxPoint x="510" y="790" as="sourcePoint" />
            <mxPoint x="560" y="740" as="targetPoint" />
          </mxGeometry>
        </mxCell>
        <mxCell id="oC0wFiGyRF026IoA_8Jc-160" value="" style="group;movable=1;resizable=1;rotatable=1;deletable=1;editable=1;locked=0;connectable=1;" vertex="1" connectable="0" parent="1">
          <mxGeometry x="319.04" y="487.94000000000005" width="478.92" height="288.04" as="geometry" />
        </mxCell>
        <mxCell id="29" value="&lt;p style=&quot;margin: 0px; margin-top: 4px; text-align: center; text-decoration: underline;&quot;&gt;&lt;/p&gt;&lt;p style=&quot;margin: 0px; margin-left: 8px;&quot;&gt;&lt;strong style=&quot;background-color: initial;&quot;&gt;&lt;br&gt;&lt;/strong&gt;&lt;/p&gt;&lt;p style=&quot;margin: 0px; margin-left: 8px;&quot;&gt;&lt;font style=&quot;font-size: 18px;&quot;&gt;&lt;strong style=&quot;background-color: initial;&quot;&gt;&lt;span style=&quot;white-space: pre;&quot;&gt;&#x9;&lt;/span&gt;&lt;span style=&quot;white-space: pre;&quot;&gt;&#x9;&lt;/span&gt;&lt;span style=&quot;white-space: pre;&quot;&gt;&#x9;&lt;/span&gt;&lt;span style=&quot;white-space: pre;&quot;&gt;&#x9;&lt;/span&gt;&lt;span style=&quot;white-space: pre;&quot;&gt;&#x9;&lt;/span&gt;&lt;font style=&quot;&quot;&gt;Feed &lt;font style=&quot;&quot;&gt;Page&lt;/font&gt;&lt;/font&gt;&lt;/strong&gt;&lt;br&gt;&lt;/font&gt;&lt;/p&gt;&lt;p style=&quot;margin: 0px; margin-left: 8px;&quot;&gt;&lt;strong style=&quot;background-color: initial;&quot;&gt;&lt;font style=&quot;font-size: 14px;&quot;&gt;&lt;br&gt;&lt;/font&gt;&lt;/strong&gt;&lt;/p&gt;&lt;p style=&quot;margin: 0px; margin-left: 8px;&quot;&gt;&lt;br&gt;&lt;/p&gt;&lt;ul&gt;&lt;li&gt;&lt;font size=&quot;3&quot;&gt;&lt;strong&gt;Start Point&lt;/strong&gt;: Core feed experience&lt;/font&gt;&lt;/li&gt;&lt;li&gt;&lt;font size=&quot;3&quot;&gt;&lt;strong&gt;Components&lt;/strong&gt;:&lt;/font&gt;&lt;ul&gt;&lt;li&gt;&lt;font size=&quot;3&quot;&gt;&lt;strong&gt;Post Creation&lt;/strong&gt;: Share opinions, financial advice&lt;/font&gt;&lt;/li&gt;&lt;li&gt;&lt;font size=&quot;3&quot;&gt;&lt;strong&gt;Filters&lt;/strong&gt;: Followings, Recommendations, Hashtags&lt;/font&gt;&lt;/li&gt;&lt;li&gt;&lt;font size=&quot;3&quot;&gt;&lt;strong&gt;Actions&lt;/strong&gt;: Comment, Follow, Share, Report&lt;/font&gt;&lt;/li&gt;&lt;li&gt;&lt;font size=&quot;3&quot;&gt;&lt;strong&gt;Summary Slider&lt;/strong&gt;: Portfolio performance&lt;/font&gt;&lt;/li&gt;&lt;li&gt;&lt;font size=&quot;3&quot;&gt;&lt;strong&gt;Redirection&lt;/strong&gt;: Financial Advisor Profile, Portfolio&amp;nbsp;&lt;/font&gt;&lt;/li&gt;&lt;li&gt;&lt;font size=&quot;3&quot;&gt;Analytics, Communities&lt;/font&gt;&lt;/li&gt;&lt;/ul&gt;&lt;/li&gt;&lt;/ul&gt;" style="verticalAlign=top;align=left;overflow=fill;fontSize=12;fontFamily=Helvetica;html=1;strokeColor=#003366;shadow=1;fillColor=#D4E1F5;fontColor=#003366" parent="oC0wFiGyRF026IoA_8Jc-160" vertex="1">
          <mxGeometry width="478.92" height="288.04" as="geometry" />
        </mxCell>
        <mxCell id="oC0wFiGyRF026IoA_8Jc-137" value="" style="image;aspect=fixed;perimeter=ellipsePerimeter;html=1;align=center;shadow=0;dashed=0;spacingTop=3;image=img/lib/active_directory/tablet_pc.svg;" vertex="1" parent="oC0wFiGyRF026IoA_8Jc-160">
          <mxGeometry x="366.34" y="19.019999999999925" width="65.7" height="90" as="geometry" />
        </mxCell>
        <mxCell id="oC0wFiGyRF026IoA_8Jc-194" style="edgeStyle=orthogonalEdgeStyle;rounded=0;orthogonalLoop=1;jettySize=auto;html=1;" edge="1" parent="oC0wFiGyRF026IoA_8Jc-160" source="29" target="29">
          <mxGeometry relative="1" as="geometry" />
        </mxCell>
        <mxCell id="oC0wFiGyRF026IoA_8Jc-163" value="" style="endArrow=classic;startArrow=classic;html=1;rounded=0;entryX=0;entryY=0.5;entryDx=0;entryDy=0;exitX=0.5;exitY=0;exitDx=0;exitDy=0;" edge="1" parent="1" source="30" target="35">
          <mxGeometry width="50" height="50" relative="1" as="geometry">
            <mxPoint x="880" y="710" as="sourcePoint" />
            <mxPoint x="930" y="660" as="targetPoint" />
            <Array as="points">
              <mxPoint x="1274" y="655" />
            </Array>
          </mxGeometry>
        </mxCell>
        <mxCell id="oC0wFiGyRF026IoA_8Jc-164" value="" style="group;movable=1;resizable=1;rotatable=1;deletable=1;editable=1;locked=0;connectable=1;" vertex="1" connectable="0" parent="1">
          <mxGeometry x="1354" y="560" width="400" height="190" as="geometry" />
        </mxCell>
        <mxCell id="35" value="&lt;p style=&quot;margin: 0px; margin-top: 4px; text-align: center; text-decoration: underline;&quot;&gt;&lt;/p&gt;&lt;blockquote style=&quot;margin: 0 0 0 40px; border: none; padding: 0px;&quot;&gt;&lt;p style=&quot;margin: 0px; margin-left: 8px;&quot;&gt;&lt;span style=&quot;background-color: initial;&quot;&gt;&lt;font style=&quot;font-size: 14px;&quot;&gt;&lt;b&gt;&lt;br&gt;&lt;/b&gt;&lt;/font&gt;&lt;/span&gt;&lt;/p&gt;&lt;p style=&quot;margin: 0px; margin-left: 8px;&quot;&gt;&lt;span style=&quot;background-color: initial;&quot;&gt;&lt;font style=&quot;font-size: 14px;&quot;&gt;&lt;b&gt;AWS S3&amp;nbsp;&lt;/b&gt;&lt;/font&gt;&lt;/span&gt;&lt;/p&gt;&lt;p style=&quot;margin: 0px; margin-left: 8px;&quot;&gt;&lt;span style=&quot;background-color: initial;&quot;&gt;&lt;font size=&quot;3&quot;&gt;&lt;b&gt;(Amazon Simple&lt;/b&gt;&lt;/font&gt;&lt;/span&gt;&lt;/p&gt;&lt;p style=&quot;margin: 0px; margin-left: 8px;&quot;&gt;&lt;span style=&quot;background-color: initial;&quot;&gt;&lt;font size=&quot;3&quot;&gt;&lt;b&gt;&amp;nbsp;Storage Service)&lt;/b&gt;&lt;/font&gt;&lt;/span&gt;&lt;/p&gt;&lt;p style=&quot;margin: 0px; margin-left: 8px;&quot;&gt;&lt;br&gt;&lt;/p&gt;&lt;li&gt;&lt;strong&gt;BucketName&lt;/strong&gt;: Name of the S3 bucket.&lt;/li&gt;&lt;li&gt;&lt;strong&gt;Region&lt;/strong&gt;: AWS region where the bucket is located.&lt;/li&gt;&lt;li&gt;&lt;strong&gt;StorageClass&lt;/strong&gt;: Type of storage used (e.g., Standard, Glacier).&lt;/li&gt;&lt;li&gt;&lt;strong&gt;AccessPolicy&lt;/strong&gt;: Permissions associated with the bucket&amp;nbsp;&lt;/li&gt;&lt;li&gt;(e.g., public, private).&lt;/li&gt;&lt;li&gt;&lt;strong&gt;CreatedAt&lt;/strong&gt;: Timestamp when the bucket was created.&lt;/li&gt;&lt;/blockquote&gt;" style="verticalAlign=top;align=left;overflow=fill;fontSize=12;fontFamily=Helvetica;html=1;strokeColor=#003366;shadow=1;fillColor=#D4E1F5;fontColor=#003366;movable=1;resizable=1;rotatable=1;deletable=1;editable=1;locked=0;connectable=1;" parent="oC0wFiGyRF026IoA_8Jc-164" vertex="1">
          <mxGeometry width="400" height="190" as="geometry" />
        </mxCell>
        <mxCell id="oC0wFiGyRF026IoA_8Jc-153" value="" style="sketch=0;outlineConnect=0;fontColor=#232F3E;gradientColor=none;fillColor=#000000;strokeColor=none;dashed=0;verticalLabelPosition=bottom;verticalAlign=top;align=center;html=1;fontSize=12;fontStyle=0;aspect=fixed;pointerEvents=1;shape=mxgraph.aws4.file_cache_s3_linked_datasets;" vertex="1" parent="oC0wFiGyRF026IoA_8Jc-164">
          <mxGeometry x="292" y="20" width="78" height="78" as="geometry" />
        </mxCell>
        <mxCell id="oC0wFiGyRF026IoA_8Jc-165" value="" style="group;movable=1;resizable=1;rotatable=1;deletable=1;editable=1;locked=0;connectable=1;" vertex="1" connectable="0" parent="1">
          <mxGeometry x="890" y="536.96" width="260" height="190" as="geometry" />
        </mxCell>
        <mxCell id="22" value="&lt;p style=&quot;margin: 0px; margin-top: 4px; text-align: center; text-decoration: underline;&quot;&gt;&lt;/p&gt;&lt;p style=&quot;margin: 0px; margin-left: 8px;&quot;&gt;&lt;span style=&quot;background-color: initial;&quot;&gt;&lt;b&gt;&lt;font style=&quot;font-size: 18px;&quot;&gt;Feed &amp;amp; Content Engine&lt;/font&gt;&lt;/b&gt;&lt;/span&gt;&lt;/p&gt;&lt;p&gt;&lt;strong&gt;&lt;font style=&quot;font-size: 14px;&quot;&gt;&lt;span style=&quot;white-space: pre;&quot;&gt;&#x9;&lt;/span&gt;Feed Algorithm&lt;/font&gt;&lt;/strong&gt;&lt;/p&gt;&lt;ul&gt;&lt;li&gt;(e.g.collaborative filtering,&lt;/li&gt;&lt;li&gt;&amp;nbsp;content-based filtering).&lt;/li&gt;&lt;/ul&gt;&lt;div&gt;&lt;b&gt;&lt;font style=&quot;&quot;&gt;&lt;span style=&quot;font-size: 12px; white-space: pre;&quot;&gt;&#x9;&lt;/span&gt;&lt;span style=&quot;background-color: initial;&quot;&gt;&lt;font style=&quot;font-size: 14px;&quot;&gt;Content Selection&lt;/font&gt;&lt;/span&gt;&lt;/font&gt;&lt;/b&gt;&lt;font size=&quot;3&quot;&gt;&lt;br&gt;&lt;/font&gt;&lt;/div&gt;&lt;div&gt;&lt;font size=&quot;3&quot;&gt;&lt;b&gt;&lt;font style=&quot;&quot;&gt;&lt;span style=&quot;background-color: initial;&quot;&gt;&lt;span style=&quot;white-space: pre;&quot;&gt;&#x9;&lt;/span&gt;&lt;br&gt;&lt;/span&gt;&lt;/font&gt;&lt;/b&gt;&lt;span style=&quot;background-color: initial;&quot;&gt;&lt;b&gt;&amp;nbsp; &amp;nbsp; &amp;nbsp; Feed Delivery&lt;/b&gt;&lt;/span&gt;&lt;/font&gt;&lt;/div&gt;&lt;div&gt;&lt;b&gt;&lt;font style=&quot;font-size: 12px;&quot;&gt;&lt;span style=&quot;background-color: initial;&quot;&gt;&lt;br&gt;&lt;/span&gt;&lt;/font&gt;&lt;/b&gt;&lt;/div&gt;" style="verticalAlign=top;align=left;overflow=fill;fontSize=12;fontFamily=Helvetica;html=1;strokeColor=#003366;shadow=1;fillColor=#D4E1F5;fontColor=#003366" parent="oC0wFiGyRF026IoA_8Jc-165" vertex="1">
          <mxGeometry width="260" height="190" as="geometry" />
        </mxCell>
        <mxCell id="oC0wFiGyRF026IoA_8Jc-161" value="" style="shape=image;html=1;verticalLabelPosition=bottom;verticalAlign=top;imageAspect=1;aspect=fixed;image=img/clipart/Gear_128x128.png" vertex="1" parent="oC0wFiGyRF026IoA_8Jc-165">
          <mxGeometry x="190" y="25" width="52" height="61" as="geometry" />
        </mxCell>
        <mxCell id="oC0wFiGyRF026IoA_8Jc-166" value="" style="group;movable=1;resizable=1;rotatable=1;deletable=1;editable=1;locked=0;connectable=1;" vertex="1" connectable="0" parent="1">
          <mxGeometry x="250" y="877" width="650" height="213" as="geometry" />
        </mxCell>
        <mxCell id="32" value="&lt;h3&gt;&lt;strong&gt;&lt;font style=&quot;font-size: 18px;&quot;&gt;&lt;span style=&quot;white-space: pre;&quot;&gt;&lt;span style=&quot;white-space: pre;&quot;&gt;&#x9;&lt;/span&gt;&#x9;&lt;/span&gt;&lt;span style=&quot;white-space: pre;&quot;&gt;&#x9;&lt;/span&gt;&lt;span style=&quot;white-space: pre;&quot;&gt;&#x9;&lt;span style=&quot;white-space: pre;&quot;&gt;&#x9;&lt;/span&gt;&lt;span style=&quot;white-space: pre;&quot;&gt;&#x9;&lt;/span&gt;&lt;/span&gt;Online Communities&lt;/font&gt;&lt;/strong&gt;&lt;/h3&gt;&lt;ul&gt;&lt;li&gt;&lt;font size=&quot;3&quot; style=&quot;&quot;&gt;&lt;strong&gt;Start Point&lt;/strong&gt;: Suggested in Feed Page or Search&lt;/font&gt;&lt;/li&gt;&lt;li&gt;&lt;font size=&quot;3&quot;&gt;&lt;strong&gt;Components&lt;/strong&gt;:&lt;/font&gt;&lt;ul&gt;&lt;li&gt;&lt;font size=&quot;3&quot;&gt;&lt;strong&gt;Domain-Specific Communities&lt;/strong&gt;: Like Discord for discussions&lt;/font&gt;&lt;/li&gt;&lt;li&gt;&lt;font size=&quot;3&quot;&gt;&lt;strong&gt;Redirection&lt;/strong&gt;: To relevant news, advisor profiles, or posts&lt;/font&gt;&lt;/li&gt;&lt;/ul&gt;&lt;/li&gt;&lt;/ul&gt;&lt;p&gt;&lt;font size=&quot;3&quot;&gt;&lt;strong&gt;&lt;span style=&quot;white-space: pre;&quot;&gt;&#x9;&lt;/span&gt;Flow&lt;/strong&gt;:&lt;/font&gt;&lt;/p&gt;&lt;ul&gt;&lt;li&gt;&lt;font size=&quot;3&quot;&gt;User → Join Community → Engage in Discussions → Redirection to Profiles/Posts&lt;/font&gt;&lt;/li&gt;&lt;/ul&gt;" style="verticalAlign=top;align=left;overflow=fill;fontSize=12;fontFamily=Helvetica;html=1;strokeColor=#003366;shadow=1;fillColor=#D4E1F5;fontColor=#003366" parent="oC0wFiGyRF026IoA_8Jc-166" vertex="1">
          <mxGeometry width="650" height="213" as="geometry" />
        </mxCell>
        <mxCell id="oC0wFiGyRF026IoA_8Jc-151" value="" style="verticalLabelPosition=bottom;sketch=0;html=1;fillColor=#282828;strokeColor=none;verticalAlign=top;pointerEvents=1;align=center;shape=mxgraph.cisco_safe.people_places_things_icons.icon1;" vertex="1" parent="oC0wFiGyRF026IoA_8Jc-166">
          <mxGeometry x="520" y="13" width="106.5" height="130" as="geometry" />
        </mxCell>
        <mxCell id="oC0wFiGyRF026IoA_8Jc-167" value="" style="group;movable=0;resizable=0;rotatable=0;deletable=0;editable=0;locked=1;connectable=0;" vertex="1" connectable="0" parent="1">
          <mxGeometry x="1384" y="860" width="340" height="200" as="geometry" />
        </mxCell>
        <mxCell id="27" value="&lt;p style=&quot;margin: 4px 0px 0px; text-align: center;&quot;&gt;&lt;b style=&quot;&quot;&gt;&lt;font style=&quot;font-size: 24px;&quot;&gt;&lt;br&gt;&lt;/font&gt;&lt;/b&gt;&lt;/p&gt;&lt;p style=&quot;margin: 4px 0px 0px; text-align: center;&quot;&gt;&lt;b&gt;&lt;font style=&quot;font-size: 24px;&quot;&gt;CDN -&amp;nbsp;&lt;/font&gt;&lt;/b&gt;&lt;b style=&quot;background-color: initial;&quot;&gt;&lt;font style=&quot;font-size: 24px;&quot;&gt;Content&amp;nbsp;&lt;/font&gt;&lt;/b&gt;&lt;b style=&quot;background-color: initial;&quot;&gt;&lt;font style=&quot;font-size: 24px;&quot;&gt;Delivery&amp;nbsp;&lt;/font&gt;&lt;/b&gt;&lt;/p&gt;&lt;p style=&quot;margin: 4px 0px 0px; text-align: center;&quot;&gt;&lt;b style=&quot;&quot;&gt;&lt;font style=&quot;font-size: 24px;&quot;&gt;Network&lt;/font&gt;&lt;/b&gt;&lt;/p&gt;" style="verticalAlign=top;align=left;overflow=fill;fontSize=12;fontFamily=Helvetica;html=1;strokeColor=#003366;shadow=1;fillColor=#D4E1F5;fontColor=#003366" parent="oC0wFiGyRF026IoA_8Jc-167" vertex="1">
          <mxGeometry width="340" height="200" as="geometry" />
        </mxCell>
        <mxCell id="oC0wFiGyRF026IoA_8Jc-143" value="" style="strokeColor=#dddddd;shadow=1;strokeWidth=1;rounded=1;absoluteArcSize=1;arcSize=2;" vertex="1" parent="oC0wFiGyRF026IoA_8Jc-167">
          <mxGeometry x="36" y="109" width="180" height="74" as="geometry" />
        </mxCell>
        <mxCell id="oC0wFiGyRF026IoA_8Jc-144" value="CDN&lt;br&gt;&lt;font style=&quot;font-size: 18px;&quot;&gt;Interconnect&lt;/font&gt;" style="sketch=0;dashed=0;connectable=0;html=1;fillColor=#757575;strokeColor=none;shape=mxgraph.gcp2.google_network_edge_cache;part=1;labelPosition=right;verticalLabelPosition=middle;align=left;verticalAlign=middle;spacingLeft=5;fontSize=12;" vertex="1" parent="oC0wFiGyRF026IoA_8Jc-143">
          <mxGeometry y="0.5" width="30" height="40" relative="1" as="geometry">
            <mxPoint x="15" y="-27" as="offset" />
          </mxGeometry>
        </mxCell>
        <mxCell id="oC0wFiGyRF026IoA_8Jc-145" value="" style="image;aspect=fixed;html=1;points=[];align=center;fontSize=12;image=img/lib/azure2/networking/CDN_Profiles.svg;" vertex="1" parent="oC0wFiGyRF026IoA_8Jc-167">
          <mxGeometry x="256" y="120" width="68" height="40" as="geometry" />
        </mxCell>
        <mxCell id="oC0wFiGyRF026IoA_8Jc-173" value="&lt;p style=&quot;margin: 0px; margin-top: 4px; text-align: center; text-decoration: underline;&quot;&gt;&lt;/p&gt;&lt;blockquote style=&quot;margin: 0 0 0 40px; border: none; padding: 0px;&quot;&gt;&lt;p style=&quot;margin: 0px; margin-left: 8px;&quot;&gt;&lt;br&gt;&lt;/p&gt;&lt;p style=&quot;margin: 0px; margin-left: 8px;&quot;&gt;&lt;b&gt;&lt;font style=&quot;font-size: 24px;&quot;&gt;USER FEATURES:&lt;/font&gt;&lt;/b&gt;&lt;/p&gt;&lt;p style=&quot;margin: 0px; margin-left: 8px;&quot;&gt;&lt;b&gt;&lt;font style=&quot;font-size: 24px;&quot;&gt;&lt;br&gt;&lt;/font&gt;&lt;/b&gt;&lt;/p&gt;&lt;p style=&quot;margin: 0px; margin-left: 8px;&quot;&gt;&lt;font style=&quot;font-size: 24px;&quot;&gt;Chat with Experts.&lt;/font&gt;&lt;/p&gt;&lt;p style=&quot;margin: 0px; margin-left: 8px;&quot;&gt;&lt;font style=&quot;font-size: 24px;&quot;&gt;Like Feeds.&lt;/font&gt;&lt;/p&gt;&lt;p style=&quot;margin: 0px; margin-left: 8px;&quot;&gt;&lt;font style=&quot;font-size: 24px;&quot;&gt;Comment.&lt;/font&gt;&lt;/p&gt;&lt;p style=&quot;margin: 0px; margin-left: 8px;&quot;&gt;&lt;b&gt;&lt;font style=&quot;font-size: 24px;&quot;&gt;&lt;br&gt;&lt;/font&gt;&lt;/b&gt;&lt;/p&gt;&lt;p style=&quot;margin: 0px; margin-left: 8px;&quot;&gt;&lt;br&gt;&lt;/p&gt;&lt;/blockquote&gt;" style="verticalAlign=top;align=left;overflow=fill;fontSize=12;fontFamily=Helvetica;html=1;strokeColor=#003366;shadow=1;fillColor=#D4E1F5;fontColor=#003366;movable=1;resizable=1;rotatable=1;deletable=1;editable=1;locked=0;connectable=1;" vertex="1" parent="1">
          <mxGeometry x="1080" y="155" width="400" height="185" as="geometry" />
        </mxCell>
        <mxCell id="oC0wFiGyRF026IoA_8Jc-174" value="" style="endArrow=classic;startArrow=classic;html=1;rounded=0;entryX=1;entryY=0.5;entryDx=0;entryDy=0;exitX=0.5;exitY=1;exitDx=0;exitDy=0;" edge="1" parent="1" source="oC0wFiGyRF026IoA_8Jc-173" target="22">
          <mxGeometry width="50" height="50" relative="1" as="geometry">
            <mxPoint x="808" y="630" as="sourcePoint" />
            <mxPoint x="900" y="630" as="targetPoint" />
            <Array as="points">
              <mxPoint x="1280" y="350" />
              <mxPoint x="1280" y="632" />
            </Array>
          </mxGeometry>
        </mxCell>
        <mxCell id="oC0wFiGyRF026IoA_8Jc-176" value="" style="image;aspect=fixed;html=1;points=[];align=center;fontSize=12;image=img/lib/azure2/general/Preview_Features.svg;" vertex="1" parent="1">
          <mxGeometry x="1384" y="214" width="68" height="68" as="geometry" />
        </mxCell>
        <mxCell id="oC0wFiGyRF026IoA_8Jc-179" value="" style="edgeStyle=orthogonalEdgeStyle;rounded=0;orthogonalLoop=1;jettySize=auto;html=1;entryX=0.5;entryY=1;entryDx=0;entryDy=0;" edge="1" parent="1" source="oC0wFiGyRF026IoA_8Jc-177" target="30">
          <mxGeometry relative="1" as="geometry">
            <mxPoint x="1270.000000000001" y="910" as="targetPoint" />
          </mxGeometry>
        </mxCell>
        <mxCell id="oC0wFiGyRF026IoA_8Jc-190" value="" style="edgeStyle=orthogonalEdgeStyle;rounded=0;orthogonalLoop=1;jettySize=auto;html=1;entryX=1;entryY=0.5;entryDx=0;entryDy=0;" edge="1" parent="1" source="oC0wFiGyRF026IoA_8Jc-177" target="32">
          <mxGeometry relative="1" as="geometry">
            <mxPoint x="910" y="1040" as="targetPoint" />
          </mxGeometry>
        </mxCell>
        <mxCell id="oC0wFiGyRF026IoA_8Jc-177" value="" style="outlineConnect=0;dashed=0;verticalLabelPosition=bottom;verticalAlign=top;align=center;html=1;shape=mxgraph.aws3.redis;fillColor=#2E73B8;gradientColor=none;" vertex="1" parent="1">
          <mxGeometry x="950" y="903.5" width="140" height="160" as="geometry" />
        </mxCell>
        <mxCell id="oC0wFiGyRF026IoA_8Jc-184" value="&lt;font style=&quot;font-size: 24px;&quot;&gt;&lt;b&gt;REDIS(Caching&lt;/b&gt;&lt;/font&gt;&lt;b style=&quot;font-size: 24px; background-color: initial;&quot;&gt;)&lt;/b&gt;" style="text;html=1;align=center;verticalAlign=middle;whiteSpace=wrap;rounded=0;" vertex="1" parent="1">
          <mxGeometry x="1000" y="1080" width="60" height="30" as="geometry" />
        </mxCell>
        <mxCell id="oC0wFiGyRF026IoA_8Jc-188" value="" style="endArrow=classic;startArrow=classic;html=1;rounded=0;entryX=0.5;entryY=0;entryDx=0;entryDy=0;entryPerimeter=0;exitX=0.5;exitY=1;exitDx=0;exitDy=0;" edge="1" parent="1" source="22" target="oC0wFiGyRF026IoA_8Jc-177">
          <mxGeometry width="50" height="50" relative="1" as="geometry">
            <mxPoint x="620" y="680" as="sourcePoint" />
            <mxPoint x="670" y="630" as="targetPoint" />
          </mxGeometry>
        </mxCell>
        <mxCell id="oC0wFiGyRF026IoA_8Jc-193" value="" style="endArrow=classic;startArrow=classic;html=1;rounded=0;entryX=0;entryY=0.5;entryDx=0;entryDy=0;exitX=1;exitY=0.5;exitDx=0;exitDy=0;" edge="1" parent="1" source="28" target="oC0wFiGyRF026IoA_8Jc-160">
          <mxGeometry width="50" height="50" relative="1" as="geometry">
            <mxPoint x="190" y="631.61" as="sourcePoint" />
            <mxPoint x="282" y="631.61" as="targetPoint" />
          </mxGeometry>
        </mxCell>
        <mxCell id="oC0wFiGyRF026IoA_8Jc-195" value="" style="group" vertex="1" connectable="0" parent="1">
          <mxGeometry x="-190" y="420.00000000000006" width="390" height="342.05999999999995" as="geometry" />
        </mxCell>
        <mxCell id="28" value="&lt;p style=&quot;margin: 0px; margin-top: 4px; text-align: center; text-decoration: underline;&quot;&gt;&lt;/p&gt;&lt;p style=&quot;margin: 0px; margin-left: 8px;&quot;&gt;&lt;b&gt;&lt;font style=&quot;font-size: 14px;&quot;&gt;&lt;span style=&quot;white-space: pre;&quot;&gt;&#x9;&lt;/span&gt;&lt;span style=&quot;white-space: pre;&quot;&gt;&#x9;&lt;/span&gt;&lt;span style=&quot;white-space: pre;&quot;&gt;&#x9;&lt;/span&gt;&amp;nbsp; &amp;nbsp;&amp;nbsp;&lt;/font&gt;&lt;/b&gt;&lt;/p&gt;&lt;p style=&quot;margin: 0px; margin-left: 8px;&quot;&gt;&lt;b&gt;&lt;font style=&quot;font-size: 18px;&quot;&gt;&lt;span style=&quot;white-space: pre;&quot;&gt;&#x9;&lt;/span&gt;&lt;span style=&quot;white-space-collapse: preserve;&quot;&gt;&amp;nbsp;&lt;/span&gt;AUTHENTICATION(API GATEWAY)&lt;/font&gt;&lt;/b&gt;&lt;/p&gt;&lt;p style=&quot;margin: 0px; margin-left: 8px;&quot;&gt;&lt;span style=&quot;background-color: initial;&quot;&gt;&lt;font size=&quot;3&quot;&gt;&lt;br&gt;&lt;/font&gt;&lt;/span&gt;&lt;/p&gt;&lt;ol style=&quot;color: rgb(0, 0, 0); text-wrap: wrap;&quot; class=&quot;ol1&quot;&gt;&lt;li style=&quot;margin: 0px; font-variant-numeric: normal; font-variant-east-asian: normal; font-variant-alternates: normal; font-size-adjust: none; font-kerning: auto; font-optical-sizing: auto; font-feature-settings: normal; font-variation-settings: normal; font-variant-position: normal; font-stretch: normal; line-height: normal; font-family: &amp;quot;Helvetica Neue&amp;quot;;&quot; class=&quot;li1&quot;&gt;&lt;font size=&quot;3&quot;&gt;&lt;b&gt;User Input&lt;/b&gt;&lt;b&gt;&lt;/b&gt;&lt;/font&gt;&lt;/li&gt;&lt;ul style=&quot;list-style-type: disc;&quot; class=&quot;ul1&quot;&gt;&lt;li style=&quot;margin: 0px; font-variant-numeric: normal; font-variant-east-asian: normal; font-variant-alternates: normal; font-size-adjust: none; font-kerning: auto; font-optical-sizing: auto; font-feature-settings: normal; font-variation-settings: normal; font-variant-position: normal; font-stretch: normal; line-height: normal; font-family: &amp;quot;Helvetica Neue&amp;quot;;&quot; class=&quot;li1&quot;&gt;&lt;font size=&quot;3&quot;&gt;&lt;span style=&quot;font-variant-numeric: normal; font-variant-east-asian: normal; font-variant-alternates: normal; font-size-adjust: none; font-kerning: auto; font-optical-sizing: auto; font-feature-settings: normal; font-variation-settings: normal; font-variant-position: normal; font-stretch: normal; line-height: normal; font-family: Menlo;&quot; class=&quot;s1&quot;&gt;&lt;/span&gt;Name, Password, GoogleOAuth&amp;nbsp;&lt;/font&gt;&lt;/li&gt;&lt;/ul&gt;&lt;li style=&quot;margin: 0px; font-variant-numeric: normal; font-variant-east-asian: normal; font-variant-alternates: normal; font-size-adjust: none; font-kerning: auto; font-optical-sizing: auto; font-feature-settings: normal; font-variation-settings: normal; font-variant-position: normal; font-stretch: normal; line-height: normal; font-family: &amp;quot;Helvetica Neue&amp;quot;;&quot; class=&quot;li1&quot;&gt;&lt;font size=&quot;3&quot;&gt;&lt;b&gt;Token Generation/Session Management&lt;/b&gt;&lt;b&gt;&lt;/b&gt;&lt;/font&gt;&lt;/li&gt;&lt;ul style=&quot;list-style-type: disc;&quot; class=&quot;ul1&quot;&gt;&lt;li style=&quot;margin: 0px; font-variant-numeric: normal; font-variant-east-asian: normal; font-variant-alternates: normal; font-size-adjust: none; font-kerning: auto; font-optical-sizing: auto; font-feature-settings: normal; font-variation-settings: normal; font-variant-position: normal; font-stretch: normal; line-height: normal; font-family: &amp;quot;Helvetica Neue&amp;quot;;&quot; class=&quot;li1&quot;&gt;&lt;font size=&quot;3&quot;&gt;&lt;span style=&quot;font-variant-numeric: normal; font-variant-east-asian: normal; font-variant-alternates: normal; font-size-adjust: none; font-kerning: auto; font-optical-sizing: auto; font-feature-settings: normal; font-variation-settings: normal; font-variant-position: normal; font-stretch: normal; line-height: normal; font-family: Menlo;&quot; class=&quot;s1&quot;&gt;&lt;/span&gt;Issue token (JWT/OAuth), set expiration times, log session creation and updates.&lt;/font&gt;&lt;/li&gt;&lt;/ul&gt;&lt;li style=&quot;margin: 0px; font-variant-numeric: normal; font-variant-east-asian: normal; font-variant-alternates: normal; font-size-adjust: none; font-kerning: auto; font-optical-sizing: auto; font-feature-settings: normal; font-variation-settings: normal; font-variant-position: normal; font-stretch: normal; line-height: normal; font-family: &amp;quot;Helvetica Neue&amp;quot;;&quot; class=&quot;li1&quot;&gt;&lt;b&gt;&lt;font size=&quot;3&quot;&gt;Session Expiry/Logout.&lt;/font&gt;&lt;/b&gt;&lt;/li&gt;&lt;li style=&quot;margin: 0px; font-variant-numeric: normal; font-variant-east-asian: normal; font-variant-alternates: normal; font-size-adjust: none; font-kerning: auto; font-optical-sizing: auto; font-feature-settings: normal; font-variation-settings: normal; font-variant-position: normal; font-stretch: normal; line-height: normal; font-family: &amp;quot;Helvetica Neue&amp;quot;;&quot; class=&quot;li1&quot;&gt;&lt;font size=&quot;3&quot;&gt;&lt;b style=&quot;background-color: initial;&quot;&gt;Processes&lt;/b&gt;&lt;span style=&quot;background-color: initial;&quot;&gt;: End session, revoke token when expired or on logout.&lt;/span&gt;&lt;/font&gt;&lt;/li&gt;&lt;/ol&gt;" style="verticalAlign=top;align=left;overflow=fill;fontSize=12;fontFamily=Helvetica;html=1;strokeColor=#003366;shadow=1;fillColor=#D4E1F5;fontColor=#003366;movable=1;resizable=1;rotatable=1;deletable=1;editable=1;locked=0;connectable=1;" parent="oC0wFiGyRF026IoA_8Jc-195" vertex="1">
          <mxGeometry y="87.5" width="390" height="254.56" as="geometry" />
        </mxCell>
        <mxCell id="oC0wFiGyRF026IoA_8Jc-127" value="" style="editableCssRules=.*;html=1;shape=image;verticalLabelPosition=bottom;labelBackgroundColor=#ffffff;verticalAlign=top;aspect=fixed;imageAspect=0;image=https://cdn1.iconfinder.com/data/icons/nuvola2/48x48/actions/kgpg_identity.png;" vertex="1" parent="oC0wFiGyRF026IoA_8Jc-195">
          <mxGeometry x="160" width="70" height="87.5" as="geometry" />
        </mxCell>
      </root>
    </mxGraphModel>
  </diagram>
</mxfile>
